<?xml version="1.0" encoding="utf-8"?>
<svg xmlns="http://www.w3.org/2000/svg" xmlns:xlink="http://www.w3.org/1999/xlink" width="600" height="400" viewBox="0 0 2400 1600">
<defs>
  <clipPath id="clip3700">
    <rect x="0" y="0" width="2400" height="1600"/>
  </clipPath>
</defs>
<polygon clip-path="url(#clip3700)" points="
0,1600 2400,1600 2400,0 0,0 
  " fill="#ffffff" fill-rule="evenodd" fill-opacity="1"/>
<defs>
  <clipPath id="clip3701">
    <rect x="480" y="0" width="1681" height="1600"/>
  </clipPath>
</defs>
<polygon clip-path="url(#clip3700)" points="
346.726,1425.62 2352.76,1425.62 2352.76,47.2441 346.726,47.2441 
  " fill="#ffffff" fill-rule="evenodd" fill-opacity="1"/>
<defs>
  <clipPath id="clip3702">
    <rect x="346" y="47" width="2007" height="1379"/>
  </clipPath>
</defs>
<polyline clip-path="url(#clip3702)" style="stroke:#000000; stroke-width:2; stroke-opacity:0.1; fill:none" points="
  468.42,1425.62 468.42,47.2441 
  "/>
<polyline clip-path="url(#clip3702)" style="stroke:#000000; stroke-width:2; stroke-opacity:0.1; fill:none" points="
  819.428,1425.62 819.428,47.2441 
  "/>
<polyline clip-path="url(#clip3702)" style="stroke:#000000; stroke-width:2; stroke-opacity:0.1; fill:none" points="
  1170.44,1425.62 1170.44,47.2441 
  "/>
<polyline clip-path="url(#clip3702)" style="stroke:#000000; stroke-width:2; stroke-opacity:0.1; fill:none" points="
  1521.44,1425.62 1521.44,47.2441 
  "/>
<polyline clip-path="url(#clip3702)" style="stroke:#000000; stroke-width:2; stroke-opacity:0.1; fill:none" points="
  1872.45,1425.62 1872.45,47.2441 
  "/>
<polyline clip-path="url(#clip3702)" style="stroke:#000000; stroke-width:2; stroke-opacity:0.1; fill:none" points="
  2223.46,1425.62 2223.46,47.2441 
  "/>
<polyline clip-path="url(#clip3702)" style="stroke:#000000; stroke-width:2; stroke-opacity:0.1; fill:none" points="
  346.726,1352.25 2352.76,1352.25 
  "/>
<polyline clip-path="url(#clip3702)" style="stroke:#000000; stroke-width:2; stroke-opacity:0.1; fill:none" points="
  346.726,1088.97 2352.76,1088.97 
  "/>
<polyline clip-path="url(#clip3702)" style="stroke:#000000; stroke-width:2; stroke-opacity:0.1; fill:none" points="
  346.726,825.69 2352.76,825.69 
  "/>
<polyline clip-path="url(#clip3702)" style="stroke:#000000; stroke-width:2; stroke-opacity:0.1; fill:none" points="
  346.726,562.41 2352.76,562.41 
  "/>
<polyline clip-path="url(#clip3702)" style="stroke:#000000; stroke-width:2; stroke-opacity:0.1; fill:none" points="
  346.726,299.131 2352.76,299.131 
  "/>
<polyline clip-path="url(#clip3700)" style="stroke:#000000; stroke-width:4; stroke-opacity:1; fill:none" points="
  346.726,1425.62 2352.76,1425.62 
  "/>
<polyline clip-path="url(#clip3700)" style="stroke:#000000; stroke-width:4; stroke-opacity:1; fill:none" points="
  346.726,1425.62 346.726,47.2441 
  "/>
<polyline clip-path="url(#clip3700)" style="stroke:#000000; stroke-width:4; stroke-opacity:1; fill:none" points="
  468.42,1425.62 468.42,1404.94 
  "/>
<polyline clip-path="url(#clip3700)" style="stroke:#000000; stroke-width:4; stroke-opacity:1; fill:none" points="
  819.428,1425.62 819.428,1404.94 
  "/>
<polyline clip-path="url(#clip3700)" style="stroke:#000000; stroke-width:4; stroke-opacity:1; fill:none" points="
  1170.44,1425.62 1170.44,1404.94 
  "/>
<polyline clip-path="url(#clip3700)" style="stroke:#000000; stroke-width:4; stroke-opacity:1; fill:none" points="
  1521.44,1425.62 1521.44,1404.94 
  "/>
<polyline clip-path="url(#clip3700)" style="stroke:#000000; stroke-width:4; stroke-opacity:1; fill:none" points="
  1872.45,1425.62 1872.45,1404.94 
  "/>
<polyline clip-path="url(#clip3700)" style="stroke:#000000; stroke-width:4; stroke-opacity:1; fill:none" points="
  2223.46,1425.62 2223.46,1404.94 
  "/>
<polyline clip-path="url(#clip3700)" style="stroke:#000000; stroke-width:4; stroke-opacity:1; fill:none" points="
  346.726,1352.25 376.816,1352.25 
  "/>
<polyline clip-path="url(#clip3700)" style="stroke:#000000; stroke-width:4; stroke-opacity:1; fill:none" points="
  346.726,1088.97 376.816,1088.97 
  "/>
<polyline clip-path="url(#clip3700)" style="stroke:#000000; stroke-width:4; stroke-opacity:1; fill:none" points="
  346.726,825.69 376.816,825.69 
  "/>
<polyline clip-path="url(#clip3700)" style="stroke:#000000; stroke-width:4; stroke-opacity:1; fill:none" points="
  346.726,562.41 376.816,562.41 
  "/>
<polyline clip-path="url(#clip3700)" style="stroke:#000000; stroke-width:4; stroke-opacity:1; fill:none" points="
  346.726,299.131 376.816,299.131 
  "/>
<g clip-path="url(#clip3700)">
<text style="fill:#000000; fill-opacity:1; font-family:Arial,Helvetica Neue,Helvetica,sans-serif; font-size:48px; text-anchor:middle;" transform="rotate(0, 468.42, 1479.62)" x="468.42" y="1479.62">4000</text>
</g>
<g clip-path="url(#clip3700)">
<text style="fill:#000000; fill-opacity:1; font-family:Arial,Helvetica Neue,Helvetica,sans-serif; font-size:48px; text-anchor:middle;" transform="rotate(0, 819.428, 1479.62)" x="819.428" y="1479.62">5000</text>
</g>
<g clip-path="url(#clip3700)">
<text style="fill:#000000; fill-opacity:1; font-family:Arial,Helvetica Neue,Helvetica,sans-serif; font-size:48px; text-anchor:middle;" transform="rotate(0, 1170.44, 1479.62)" x="1170.44" y="1479.62">6000</text>
</g>
<g clip-path="url(#clip3700)">
<text style="fill:#000000; fill-opacity:1; font-family:Arial,Helvetica Neue,Helvetica,sans-serif; font-size:48px; text-anchor:middle;" transform="rotate(0, 1521.44, 1479.62)" x="1521.44" y="1479.62">7000</text>
</g>
<g clip-path="url(#clip3700)">
<text style="fill:#000000; fill-opacity:1; font-family:Arial,Helvetica Neue,Helvetica,sans-serif; font-size:48px; text-anchor:middle;" transform="rotate(0, 1872.45, 1479.62)" x="1872.45" y="1479.62">8000</text>
</g>
<g clip-path="url(#clip3700)">
<text style="fill:#000000; fill-opacity:1; font-family:Arial,Helvetica Neue,Helvetica,sans-serif; font-size:48px; text-anchor:middle;" transform="rotate(0, 2223.46, 1479.62)" x="2223.46" y="1479.62">9000</text>
</g>
<g clip-path="url(#clip3700)">
<text style="fill:#000000; fill-opacity:1; font-family:Arial,Helvetica Neue,Helvetica,sans-serif; font-size:48px; text-anchor:start;" transform="rotate(0, 159.384, 1375.98)" x="159.384" y="1375.98">10</text>
</g>
<g clip-path="url(#clip3700)">
<text style="fill:#000000; fill-opacity:1; font-family:Arial,Helvetica Neue,Helvetica,sans-serif; font-size:38px; text-anchor:start;" transform="rotate(0, 212.909, 1348.57)" x="212.909" y="1348.57">-</text>
</g>
<g clip-path="url(#clip3700)">
<text style="fill:#000000; fill-opacity:1; font-family:Arial,Helvetica Neue,Helvetica,sans-serif; font-size:38px; text-anchor:start;" transform="rotate(0, 235.748, 1348.57)" x="235.748" y="1348.57">16.0 </text>
</g>
<g clip-path="url(#clip3700)">
<text style="fill:#000000; fill-opacity:1; font-family:Arial,Helvetica Neue,Helvetica,sans-serif; font-size:48px; text-anchor:start;" transform="rotate(0, 159.384, 1112.7)" x="159.384" y="1112.7">10</text>
</g>
<g clip-path="url(#clip3700)">
<text style="fill:#000000; fill-opacity:1; font-family:Arial,Helvetica Neue,Helvetica,sans-serif; font-size:38px; text-anchor:start;" transform="rotate(0, 212.909, 1085.29)" x="212.909" y="1085.29">-</text>
</g>
<g clip-path="url(#clip3700)">
<text style="fill:#000000; fill-opacity:1; font-family:Arial,Helvetica Neue,Helvetica,sans-serif; font-size:38px; text-anchor:start;" transform="rotate(0, 235.748, 1085.29)" x="235.748" y="1085.29">15.8 </text>
</g>
<g clip-path="url(#clip3700)">
<text style="fill:#000000; fill-opacity:1; font-family:Arial,Helvetica Neue,Helvetica,sans-serif; font-size:48px; text-anchor:start;" transform="rotate(0, 159.384, 849.417)" x="159.384" y="849.417">10</text>
</g>
<g clip-path="url(#clip3700)">
<text style="fill:#000000; fill-opacity:1; font-family:Arial,Helvetica Neue,Helvetica,sans-serif; font-size:38px; text-anchor:start;" transform="rotate(0, 212.909, 822.007)" x="212.909" y="822.007">-</text>
</g>
<g clip-path="url(#clip3700)">
<text style="fill:#000000; fill-opacity:1; font-family:Arial,Helvetica Neue,Helvetica,sans-serif; font-size:38px; text-anchor:start;" transform="rotate(0, 235.748, 822.007)" x="235.748" y="822.007">15.6 </text>
</g>
<g clip-path="url(#clip3700)">
<text style="fill:#000000; fill-opacity:1; font-family:Arial,Helvetica Neue,Helvetica,sans-serif; font-size:48px; text-anchor:start;" transform="rotate(0, 159.384, 586.138)" x="159.384" y="586.138">10</text>
</g>
<g clip-path="url(#clip3700)">
<text style="fill:#000000; fill-opacity:1; font-family:Arial,Helvetica Neue,Helvetica,sans-serif; font-size:38px; text-anchor:start;" transform="rotate(0, 212.909, 558.727)" x="212.909" y="558.727">-</text>
</g>
<g clip-path="url(#clip3700)">
<text style="fill:#000000; fill-opacity:1; font-family:Arial,Helvetica Neue,Helvetica,sans-serif; font-size:38px; text-anchor:start;" transform="rotate(0, 235.748, 558.727)" x="235.748" y="558.727">15.4 </text>
</g>
<g clip-path="url(#clip3700)">
<text style="fill:#000000; fill-opacity:1; font-family:Arial,Helvetica Neue,Helvetica,sans-serif; font-size:48px; text-anchor:start;" transform="rotate(0, 159.384, 322.858)" x="159.384" y="322.858">10</text>
</g>
<g clip-path="url(#clip3700)">
<text style="fill:#000000; fill-opacity:1; font-family:Arial,Helvetica Neue,Helvetica,sans-serif; font-size:38px; text-anchor:start;" transform="rotate(0, 212.909, 295.448)" x="212.909" y="295.448">-</text>
</g>
<g clip-path="url(#clip3700)">
<text style="fill:#000000; fill-opacity:1; font-family:Arial,Helvetica Neue,Helvetica,sans-serif; font-size:38px; text-anchor:start;" transform="rotate(0, 235.748, 295.448)" x="235.748" y="295.448">15.2 </text>
</g>
<g clip-path="url(#clip3700)">
<text style="fill:#000000; fill-opacity:1; font-family:Arial,Helvetica Neue,Helvetica,sans-serif; font-size:66px; text-anchor:middle;" transform="rotate(0, 1349.74, 1559.48)" x="1349.74" y="1559.48">wave (Å)</text>
</g>
<g clip-path="url(#clip3700)">
<text style="fill:#000000; fill-opacity:1; font-family:Arial,Helvetica Neue,Helvetica,sans-serif; font-size:66px; text-anchor:middle;" transform="rotate(-90, 89.2861, 736.431)" x="89.2861" y="736.431">flux density (erg Å^-1 cm^-2 s^-1)</text>
</g>
<polyline clip-path="url(#clip3702)" style="stroke:#009af9; stroke-width:4; stroke-opacity:1; fill:none" points="
  403.5,906.113 403.808,913.172 404.117,927.861 404.425,956.684 404.734,982.702 405.043,975.352 405.351,988.122 405.66,959.59 405.969,990.326 406.278,971.332 
  406.587,1025.88 406.897,1027.01 407.205,942.278 407.514,921.245 407.824,990.226 408.133,1007.44 408.443,995.943 408.752,1030.72 409.062,1012.11 409.372,1016.54 
  409.681,1035.92 409.991,1040.81 410.301,1075.08 410.611,1131.99 410.921,1167.41 411.231,1210.93 411.541,1243.06 411.851,1249.12 412.162,1223.09 412.472,1255.53 
  412.783,1256.35 413.093,1183.14 413.404,1156.49 413.714,1168.45 414.025,1122.86 414.336,1039.63 414.646,993.335 414.958,1025.91 415.269,979.857 415.58,985.466 
  415.891,903.131 416.202,906.234 416.513,952.139 416.825,935.639 417.136,936.114 417.448,972.967 417.76,881.057 418.071,912.848 418.382,898.354 418.695,916.097 
  419.006,966.781 419.319,920.956 419.63,932.653 419.943,972.69 420.255,954.487 420.566,924.337 420.879,911.955 421.191,952.619 421.504,920.208 421.816,925.765 
  422.129,909.636 422.442,894.475 422.754,912.899 423.067,915.573 423.38,903.757 423.693,897.725 424.006,873.924 424.32,904.455 424.632,940.493 424.945,975.401 
  425.259,967.489 425.572,898.584 425.886,904.515 426.199,958.358 426.513,950.521 426.827,916.689 427.14,955.502 427.454,1003.09 427.768,977.995 428.082,990.34 
  428.396,994.642 428.711,1025.31 429.024,1037.84 429.338,1082.45 429.653,1121.26 429.967,1121.84 430.282,1125.22 430.596,1103.75 430.911,1116.43 431.226,1088.78 
  431.541,1118 431.855,1100.92 432.17,1050.28 432.485,1013.62 432.8,1013.83 433.116,1003.79 433.431,967.779 433.746,953.211 434.061,947.985 434.376,968.522 
  434.692,967.359 435.007,891.434 435.324,919.4 435.639,939.809 435.955,954.121 436.271,945.514 436.586,930.068 436.903,947.984 437.218,911.083 437.535,874.051 
  437.851,869.403 438.168,841.242 438.484,861.289 438.8,871.391 439.117,879.304 439.433,901.032 439.75,911.014 440.066,899.024 440.384,901.457 440.7,925.263 
  441.017,904.561 441.334,881.424 441.651,900.708 441.969,935.701 442.286,943.513 442.603,939.836 442.92,922.132 443.237,910.878 443.555,941.727 443.873,966.25 
  444.191,956.949 444.508,971.59 444.826,1023.17 445.144,1048.05 445.462,1071.77 445.78,1149.73 446.098,1205.69 446.417,1187.48 446.735,1163.09 447.053,1150.99 
  447.371,1108.65 447.69,1054.39 448.008,989.173 448.327,986.053 448.646,972.077 448.964,921.551 449.284,948.485 449.602,978.38 449.921,956.27 450.24,957.153 
  450.559,945.793 450.879,920.784 451.198,901.435 451.518,940.278 451.837,916.775 452.156,898.732 452.476,901.278 452.795,907.302 453.115,899.448 453.435,885.937 
  453.755,885.632 454.075,892.226 454.395,927.949 454.715,936.898 455.035,924.811 455.356,933.304 455.676,950.631 455.996,983.075 456.317,1031.53 456.637,1055.78 
  456.958,1061.04 457.278,1117.68 457.599,1195.18 457.92,1280.05 458.241,1308.92 458.562,1386.61 458.883,1314.17 459.204,1301.68 459.525,1271.6 459.847,1233.79 
  460.168,1251.52 460.49,1237.07 460.811,1167.71 461.133,1107.92 461.454,1044.58 461.776,1045.44 462.098,1007.53 462.419,983.174 462.742,960.429 463.063,934.356 
  463.386,933.258 463.708,946.478 464.03,938.739 464.352,924.47 464.674,912.719 464.997,922.318 465.32,905.887 465.643,879.97 465.965,902.977 466.287,883.424 
  466.611,894.371 466.933,893.782 467.257,860.923 467.579,897.334 467.903,864.853 468.226,874.916 468.549,886.684 468.873,914.049 469.196,872.341 469.52,879.354 
  469.843,883.154 470.167,865.177 470.49,859.147 470.814,847.731 471.138,850.647 471.462,934.261 471.786,879.427 472.11,885.479 472.435,894.835 472.759,891.371 
  473.083,884.704 473.407,864.585 473.732,877.321 474.057,864.837 474.381,826.847 474.706,852.951 475.03,858.051 475.355,876.651 475.68,817.44 476.005,834.738 
  476.33,861.864 476.655,856.617 476.981,844.891 477.306,838.078 477.631,847.627 477.957,867.071 478.282,878.673 478.608,915.314 478.933,867.232 479.26,898.571 
  479.585,872.536 479.911,858.588 480.237,865.734 480.563,873.058 480.889,877.557 481.215,881.703 481.542,879.146 481.868,876.479 482.195,888.588 482.521,871.94 
  482.847,838.012 483.174,798.289 483.501,863.007 483.828,828.791 484.154,823.329 484.482,842.151 484.809,846.238 485.135,851.467 485.463,842.481 485.79,915.635 
  486.118,898.105 486.445,891.83 486.773,865.202 487.1,851.105 487.427,826.75 487.755,847.395 488.083,851.665 488.411,857.763 488.739,889.62 489.067,879.991 
  489.395,887.775 489.723,882.674 490.051,870.164 490.379,886.601 490.708,887.792 491.036,840.334 491.365,846.263 491.694,875.506 492.022,899.903 492.351,905.657 
  492.68,882.475 493.009,883.609 493.338,879.511 493.667,870.775 493.996,874.022 494.325,814.928 494.655,878.54 494.984,903.847 495.313,898.668 495.643,886.723 
  495.973,876.861 496.302,909.325 496.631,939.07 496.962,945.716 497.291,929.727 497.622,932.268 497.951,908.484 498.282,861.199 498.612,852.933 498.942,864.307 
  499.273,900.604 499.603,913.214 499.934,892.408 500.264,899.91 500.595,872.269 500.925,875.422 501.256,881.611 501.587,870.195 501.918,889.823 502.249,872.439 
  502.58,901.32 502.912,954.72 503.243,967.063 503.574,972.814 503.906,996.409 504.237,998.479 504.569,1029.21 504.9,1034.48 505.232,1020.82 505.564,992.992 
  505.896,1008.54 506.228,1053.06 506.559,1035.55 506.892,1025.36 507.224,1008.18 507.556,967.077 507.888,975.558 508.221,955.779 508.553,961.384 508.886,940.171 
  509.219,910.811 509.551,927.076 509.884,917.726 510.217,893.296 510.55,878.352 510.883,864.432 511.216,878.1 511.55,920.475 511.882,911.082 512.216,913.913 
  512.549,927.515 512.883,929.777 513.216,881.198 513.55,902.175 513.884,895.486 514.217,894.55 514.552,924.931 514.885,951.673 515.22,940.087 515.554,919.367 
  515.887,933.465 516.222,925.276 516.556,934.734 516.891,917.669 517.225,905.981 517.56,883.691 517.894,875.238 518.229,878.066 518.564,870.847 518.899,861.179 
  519.234,877.487 519.569,914.854 519.904,922.789 520.239,925.714 520.574,943.999 520.91,914.267 521.245,910.254 521.581,910.329 521.916,902.083 522.252,904.349 
  522.587,926.817 522.923,929.882 523.259,900.675 523.595,894.472 523.931,921.125 524.267,920.111 524.604,910.175 524.94,896.411 525.276,906.545 525.613,901.341 
  525.949,886.316 526.286,889.147 526.622,902.942 526.959,908.599 527.296,897.745 527.632,894.161 527.97,921.416 528.306,896.898 528.644,906.109 528.981,898.666 
  529.319,882.218 529.656,883.886 529.993,933.829 530.331,946.441 530.668,950.275 531.006,968.396 531.343,956.723 531.682,954.838 532.019,938.86 532.358,921.272 
  532.695,915.058 533.033,930.723 533.372,928.217 533.71,925.93 534.048,910.94 534.387,904.325 534.726,897.985 535.064,896.031 535.402,911.6 535.741,923.01 
  536.08,934.034 536.419,903.455 536.758,908.922 537.097,915.434 537.436,862.202 537.775,882.549 538.115,885.318 538.454,902.788 538.794,930.625 539.133,931.763 
  539.473,924.173 539.812,923.35 540.152,932.142 540.492,916.048 540.832,929.484 541.172,926.741 541.512,915.158 541.852,915.205 542.192,910.914 542.532,897.198 
  542.873,885.62 543.213,883.141 543.554,897.248 543.895,908.888 544.236,894.366 544.576,901.85 544.917,890.137 545.258,932.86 545.599,908.764 545.94,909.407 
  546.281,897.031 546.623,868.214 546.964,859.92 547.305,855.692 547.647,867.002 547.988,909.236 548.33,922.527 548.672,922.161 549.014,969.907 549.355,1002.57 
  549.697,983.651 550.04,968.167 550.381,914.491 550.724,900.399 551.066,894.546 551.409,901.334 551.751,928.404 552.093,936.468 552.436,918.646 552.778,913.257 
  553.122,922.724 553.464,892.094 553.807,919.476 554.15,909.352 554.493,898.917 554.836,911.699 555.179,898.686 555.523,873.805 555.866,867.599 556.21,881.515 
  556.553,900.411 556.897,911.635 557.241,921.159 557.584,936.186 557.928,940.218 558.272,926.33 558.616,915.704 558.96,913.836 559.305,929.973 559.649,909.31 
  559.993,887.616 560.338,887.472 560.682,901.234 561.027,926.386 561.371,940.497 561.716,936.935 562.061,915.403 562.405,877.135 562.751,869.139 563.096,870.513 
  563.441,867.144 563.786,886.952 564.132,895.826 564.477,906.995 564.822,940.682 565.168,961.95 565.513,955.338 565.859,957.05 566.205,961.708 566.551,949.368 
  566.896,908.379 567.242,928.211 567.589,902.681 567.935,897.499 568.281,897.642 568.627,910.12 568.974,928.16 569.32,916.885 569.666,895.68 570.014,913.79 
  570.36,927.669 570.707,888.532 571.054,924.612 571.401,925.672 571.748,980.326 572.095,971.75 572.442,940.629 572.789,933.866 573.137,913.285 573.484,929.78 
  573.832,941.344 574.179,943.624 574.527,971.02 574.875,978.911 575.222,1016.96 575.571,1004.24 575.918,1007.63 576.267,1014.89 576.615,975.282 576.963,990.448 
  577.312,1005.44 577.659,992.792 578.008,1004.53 578.357,1016.98 578.706,1007.56 579.054,986.299 579.403,963.94 579.752,964.873 580.101,959.191 580.45,933.525 
  580.799,912.105 581.148,899.468 581.497,898.739 581.847,889.087 582.196,885.939 582.546,906.524 582.896,925.296 583.245,940.378 583.595,962.581 583.945,981.408 
  584.294,997.879 584.645,1002.78 584.994,965.167 585.345,908.823 585.695,918.053 586.046,942.57 586.396,954.46 586.747,942.149 587.097,931.686 587.447,943.524 
  587.799,972.432 588.149,1017.34 588.5,1071.34 588.851,1049.07 589.203,938.603 589.553,893.104 589.904,903.231 590.256,1011.8 590.607,1039.93 590.959,1022.85 
  591.31,990.793 591.662,971.979 592.014,968.009 592.365,928.522 592.718,933.762 593.069,979.548 593.422,987.272 593.773,968.535 594.126,957.58 594.478,985.119 
  594.83,902.964 595.183,883.373 595.535,887.817 595.888,898.424 596.24,900.078 596.594,905.056 596.946,882.013 597.299,876.963 597.652,883.565 598.005,879.138 
  598.358,872.279 598.711,883.188 599.065,915.696 599.418,924.147 599.771,936.984 600.125,896.222 600.479,879.374 600.833,918.542 601.186,928.65 601.541,927.365 
  601.894,925.022 602.248,892.735 602.603,887.037 602.957,887.714 603.311,877.889 603.665,905.664 604.02,937.387 604.374,976.334 604.729,985.895 605.084,1019.81 
  605.438,970.373 605.794,950.075 606.148,952.249 606.504,937.192 606.859,919.761 607.214,929.861 607.569,919.858 607.924,913.795 608.28,923.783 608.635,932.887 
  608.992,926.682 609.347,879.319 609.702,891.964 610.059,888.594 610.414,918.604 610.771,926.147 611.126,915.282 611.483,919.895 611.839,929.884 612.195,964.521 
  612.552,956.141 612.908,906.73 613.265,919.856 613.621,938.669 613.979,889.146 614.335,874.047 614.693,874.956 615.049,888.753 615.406,931.13 615.764,923.734 
  616.121,959.381 616.478,942.032 616.835,923.019 617.193,903.634 617.551,881.41 617.908,900.242 618.266,902.596 618.624,893.971 618.982,904.388 619.34,894.822 
  619.698,881.096 620.056,904.209 620.414,902.679 620.773,876.664 621.131,915.191 621.49,907.741 621.848,906.921 622.207,910.262 622.566,927.21 622.924,942.849 
  623.283,915.313 623.642,885.846 624.002,868.173 624.36,872.142 624.72,898.374 625.079,913.137 625.438,936.075 625.798,918.091 626.157,900.247 626.517,902.58 
  626.877,883.759 627.237,854.129 627.597,882.607 627.956,904.857 628.317,892.245 628.676,886.531 629.037,898.461 629.397,911.32 629.758,918.341 630.118,924.177 
  630.478,925.44 630.84,928.452 631.2,945.252 631.561,930.089 631.922,932.688 632.283,934.952 632.644,908.131 633.005,917.684 633.366,895.869 633.727,920.84 
  634.089,913.866 634.45,927.08 634.812,936.216 635.174,936.26 635.535,922.068 635.897,894.965 636.259,889.899 636.621,881.096 636.983,887.698 637.346,880.374 
  637.708,878.113 638.069,871.872 638.432,921.095 638.794,943.902 639.157,946.905 639.52,935.674 639.883,882.194 640.245,866.92 640.608,861.348 640.971,870.299 
  641.334,899.612 641.698,911.703 642.06,911.862 642.424,907.801 642.787,901.14 643.151,895.127 643.515,918.636 643.878,928.689 644.242,894.352 644.605,889.93 
  644.97,898.795 645.334,875.717 645.698,889.364 646.062,879.378 646.426,875.171 646.791,865.929 647.155,846.589 647.52,847.113 647.884,870.09 648.249,880.474 
  648.613,856.87 648.978,868.297 649.343,870.299 649.708,871.956 650.073,880.449 650.438,865.667 650.804,890.487 651.169,894.225 651.534,887.896 651.9,882.02 
  652.265,892.895 652.631,880.634 652.997,879.728 653.363,894.504 653.728,899.855 654.094,902.283 654.461,902.288 654.826,919.447 655.193,918.729 655.559,935.892 
  655.926,946.145 656.292,924.383 656.658,896.272 657.026,911.144 657.392,930.978 657.759,947.161 658.126,935.489 658.493,904.75 658.86,885.577 659.227,876.344 
  659.595,877.106 659.962,888.439 660.33,898.948 660.697,896.259 661.065,884.021 661.432,887.234 661.8,882.892 662.168,885.771 662.535,916.806 662.904,935.296 
  663.272,912.987 663.64,927.698 664.008,914.089 664.376,905.791 664.745,921.887 665.113,928.717 665.483,903.389 665.851,886.102 666.22,890.462 666.589,884.855 
  666.957,865.394 667.327,868.565 667.696,892.772 668.065,913.515 668.434,903.851 668.804,910.306 669.173,886.633 669.543,871.3 669.912,848.341 670.282,880.23 
  670.652,879.876 671.022,883.685 671.392,879.753 671.762,863.457 672.132,861.977 672.502,878.959 672.872,886.8 673.243,890.867 673.613,903.833 673.984,907.32 
  674.355,927.562 674.726,919.594 675.096,902.758 675.467,903.813 675.838,884.084 676.209,879.094 676.581,843.462 676.952,868.562 677.324,880.298 677.695,869.183 
  678.066,902.184 678.438,890.822 678.809,892.84 679.181,901.264 679.553,903.508 679.925,896.966 680.297,878.433 680.669,891.748 681.042,887.83 681.413,893.154 
  681.786,883.368 682.159,898.578 682.531,878.429 682.904,875.044 683.276,867.505 683.649,865.425 684.022,845.85 684.395,867.153 684.768,881.339 685.142,878.752 
  685.514,878.148 685.887,865.195 686.261,859.309 686.635,872.983 687.009,876.086 687.382,877.146 687.756,893.629 688.13,889.546 688.503,876.097 688.878,854.656 
  689.251,861.118 689.626,854.189 690,859.023 690.375,865.817 690.749,877.828 691.123,880.698 691.498,882.585 691.872,874.858 692.248,866.58 692.622,878.564 
  692.998,889.603 693.372,886.184 693.747,883.619 694.123,897.164 694.498,903.949 694.874,890.873 695.249,887.27 695.625,889.489 696,883.199 696.375,895.256 
  696.752,901.993 697.127,904.595 697.504,935.678 697.879,915.198 698.256,926.422 698.632,876.874 699.009,894.479 699.385,880.711 699.761,908.764 700.138,883.581 
  700.514,881.245 700.892,888.779 701.268,874.317 701.646,855.588 702.022,856.73 702.399,881.3 702.777,905.303 703.154,904.544 703.532,893.016 703.909,926.488 
  704.287,967.154 704.664,928.178 705.041,926.964 705.42,889.122 705.797,903.207 706.176,895.16 706.553,876.844 706.932,904.408 707.31,904.255 707.688,893.516 
  708.067,864.379 708.445,882.015 708.824,900.92 709.202,913.453 709.582,891.109 709.96,878.694 710.339,874.574 710.718,872.726 711.097,888.274 711.477,891.303 
  711.856,884.937 712.235,864.529 712.615,892.757 712.994,894.479 713.374,883 713.753,892.596 714.134,874.946 714.513,876.36 714.894,901.905 715.273,883.25 
  715.653,897.374 716.034,892.978 716.414,913.439 716.795,926.986 717.175,904.696 717.556,900.893 717.936,895.984 718.317,903.93 718.698,918.368 719.079,913.025 
  719.46,893.079 719.841,882.945 720.223,899.519 720.604,914.651 720.985,910.773 721.367,910.052 721.748,866.09 722.13,877.62 722.512,884.881 722.894,862.035 
  723.275,854.495 723.657,880.812 724.04,866.819 724.422,869.928 724.804,870.715 725.186,895.51 725.569,896.009 725.951,916.944 726.334,929.494 726.717,912.688 
  727.099,904.401 727.483,892.988 727.865,883.775 728.249,886.615 728.632,887.625 729.015,891.353 729.398,890.915 729.781,889.655 730.165,903.344 730.549,879.963 
  730.933,880.305 731.316,883.743 731.701,890.615 732.084,887.77 732.468,861.24 732.852,871.273 733.236,859.102 733.621,866.004 734.005,879.624 734.39,881.232 
  734.774,902.411 735.159,887.41 735.544,902.813 735.928,898.864 736.314,886.084 736.698,882.934 737.084,897.264 737.469,910.178 737.854,902.649 738.24,907.846 
  738.625,922.524 739.011,913.154 739.396,908.9 739.782,905.473 740.168,889.262 740.553,897.733 740.94,900.065 741.325,878.398 741.712,899.316 742.098,867.804 
  742.485,879.469 742.871,874.579 743.257,877.269 743.644,848.823 744.03,859.554 744.418,882.46 744.804,886.836 745.192,889.39 745.578,891.761 745.965,898.319 
  746.353,910.929 746.74,893.42 747.128,898.661 747.515,911.044 747.903,895.796 748.29,883.75 748.678,870.528 749.066,856.586 749.454,860.933 749.842,875.223 
  750.23,889.818 750.619,884.542 751.007,889.092 751.395,888.412 751.784,876.143 752.172,886.23 752.561,888.671 752.949,900.239 753.339,904.243 753.727,886.411 
  754.116,914.525 754.506,883.763 754.894,893.586 755.284,883.119 755.673,886.637 756.063,877.321 756.453,864.448 756.842,884.881 757.232,886.051 757.621,868.658 
  758.012,882.902 758.401,886.462 758.792,895.337 759.182,912.397 759.573,919.167 759.963,920.972 760.353,898.562 760.744,897.15 761.134,910.129 761.525,892.344 
  761.916,904.731 762.307,906.015 762.698,913.068 763.089,897.354 763.48,896.583 763.871,905.121 764.263,918.639 764.654,900.122 765.046,907.951 765.437,911.757 
  765.829,918.35 766.221,908.159 766.613,904.111 767.005,897.954 767.397,932.243 767.789,930.476 768.181,919.542 768.573,931.852 768.966,917.117 769.358,938.994 
  769.752,953.83 770.144,981.122 770.537,995.933 770.93,1017.09 771.322,1008.89 771.716,940.63 772.109,756.877 772.503,615.347 772.895,663.943 773.289,847.209 
  773.683,969.89 774.076,993.701 774.47,992.408 774.863,965.16 775.258,961.195 775.652,990.959 776.046,974.157 776.44,989.178 776.834,971.027 777.229,973.822 
  777.623,965.632 778.018,947.157 778.412,922.726 778.807,915.15 779.202,916.023 779.596,931.439 779.992,931.389 780.386,917.94 780.782,930.742 781.177,953.359 
  781.573,930.753 781.968,944.022 782.363,931.06 782.759,959.336 783.154,966.327 783.551,941.707 783.946,908.049 784.343,894.392 784.738,879.796 785.134,888.17 
  785.531,891.144 785.927,890.304 786.324,899.375 786.72,898.341 787.117,893.717 787.513,906.594 787.91,898.76 788.307,889.838 788.704,900.405 789.102,912.643 
  789.498,926.827 789.896,925.393 790.293,929.141 790.691,909.37 791.088,881.555 791.485,889.315 791.884,886.258 792.281,911.907 792.679,946.584 793.077,956.422 
  793.476,974.284 793.873,964.897 794.271,946.547 794.67,941.618 795.068,917.804 795.467,897.755 795.866,873.769 796.265,891.285 796.663,851.38 797.062,890.084 
  797.461,883.168 797.86,912.234 798.26,924.733 798.659,899.976 799.059,916.108 799.458,917.289 799.857,939.004 800.257,934.137 800.656,907.009 801.057,887.358 
  801.456,875.689 801.857,898.634 802.256,894.579 802.656,887.638 803.057,894.376 803.457,880.09 803.858,882.211 804.258,898.68 804.66,903.919 805.06,902.734 
  805.46,899.262 805.862,917.196 806.262,923.75 806.664,886.531 807.065,862.465 807.467,862.913 807.868,875.005 808.269,892.045 808.671,897.443 809.072,918.615 
  809.475,925.381 809.876,909.11 810.279,927.094 810.68,917.54 811.082,905.359 811.485,899.834 811.887,897.737 812.289,896.903 812.692,904.541 813.095,881.981 
  813.497,915.655 813.9,921.046 814.303,915.039 814.705,921.076 815.109,945.733 815.512,947.643 815.916,943.385 816.319,921.852 816.722,913.405 817.126,925.578 
  817.529,915.343 817.933,929.421 818.337,926.01 818.741,921.587 819.145,932.61 819.548,918.456 819.953,909.062 820.357,929.76 820.762,915.862 821.166,928.326 
  821.571,950.451 821.975,923.521 822.38,926.022 822.785,924.588 823.189,856.433 823.595,834.072 824,829.862 824.405,865.411 824.81,900.881 825.216,937.135 
  825.621,941.254 826.027,970.696 826.433,986.923 826.838,964.737 827.245,954.067 827.65,974.424 828.057,977.619 828.462,955.515 828.868,948.885 829.275,944.559 
  829.681,937.135 830.088,937.813 830.494,947.665 830.902,926.594 831.308,926.846 831.715,923.534 832.122,920.098 832.529,914.996 832.937,899.771 833.343,918.257 
  833.751,920.746 834.158,934.064 834.565,947.559 834.974,951.383 835.381,983.262 835.789,995.956 836.197,965.194 836.606,938.988 837.013,920.835 837.421,886.128 
  837.83,903.029 838.238,932.545 838.647,928.736 839.055,936.545 839.464,940.868 839.873,935.563 840.281,906.506 840.691,905.477 841.099,908.66 841.509,911.017 
  841.918,900.619 842.328,905.415 842.737,896.409 843.146,897.897 843.556,910.589 843.965,924.81 844.376,944.056 844.785,927.176 845.196,928.628 845.605,929.344 
  846.015,927.241 846.426,916.353 846.836,909.096 847.247,914.941 847.657,921.973 848.068,907.618 848.479,921.5 848.889,942.535 849.3,939.645 849.711,949.947 
  850.123,943.029 850.534,942.254 850.945,934.871 851.356,927.125 851.768,910.376 852.18,902.326 852.591,902.93 853.003,923.73 853.415,904.69 853.827,907.089 
  854.239,904.774 854.652,916.219 855.064,920.414 855.476,931.337 855.888,950.722 856.301,971.237 856.714,932.559 857.126,916.591 857.54,916.738 857.952,928.956 
  858.365,927.781 858.778,925.469 859.191,936.004 859.605,922.35 860.018,930.8 860.432,914.643 860.845,916.586 861.259,920.444 861.673,910.631 862.086,905.362 
  862.501,906.311 862.915,900.373 863.329,898.717 863.743,926.832 864.157,930.242 864.572,949.397 864.986,958.87 865.402,945.894 865.816,954.781 866.231,973.997 
  866.646,953.615 867.06,960.121 867.476,956.529 867.891,935.131 868.307,931.373 868.722,907.591 869.138,918.85 869.553,932.891 869.968,964.853 870.385,973.659 
  870.8,948.556 871.217,952.885 871.632,942.207 872.049,960.581 872.465,941.443 872.881,949.628 873.298,952.695 873.714,951.319 874.131,953.352 874.548,956.234 
  874.965,965.697 875.382,956.158 875.798,954.988 876.216,935.236 876.633,935.684 877.051,923.887 877.468,918.625 877.886,932.925 878.303,946.983 878.72,934.147 
  879.138,959.04 879.556,1011.33 879.975,1042.4 880.392,1063.05 880.811,1031.17 881.229,1030.98 881.647,1052.03 882.066,1049.34 882.484,1013.62 882.903,969.547 
  883.322,935.563 883.741,943.959 884.16,956.625 884.578,946.87 884.998,984.682 885.417,1021.74 885.837,1028.52 886.256,1039.11 886.676,972.891 887.095,948.636 
  887.515,969.932 887.935,942.55 888.354,951.307 888.775,980.386 889.195,992.065 889.615,961.762 890.035,946.485 890.456,932.734 890.876,935.202 891.297,915.524 
  891.718,917.034 892.138,935.041 892.56,934.138 892.98,961.961 893.402,978.532 893.823,987.957 894.243,991.999 894.665,988.705 895.087,963.272 895.509,948.33 
  895.93,933.349 896.352,931.573 896.774,939.673 897.195,947.158 897.618,956.819 898.04,918.594 898.462,909.997 898.884,920.588 899.307,920.193 899.729,929.758 
  900.152,958.923 900.575,990.576 900.997,990.43 901.421,971.445 901.844,947.569 902.267,917.841 902.69,922.586 903.113,947.661 903.537,950.389 903.96,935.917 
  904.384,923.687 904.808,921.993 905.232,919.525 905.655,922.35 906.079,931.763 906.504,912.996 906.928,900.448 907.352,915.579 907.776,926.267 908.202,937.064 
  908.626,951.541 909.05,956.473 909.475,949.283 909.9,925.443 910.325,943.025 910.75,940.219 911.176,941.925 911.601,921.03 912.026,902.783 912.452,907.862 
  912.877,919.666 913.303,955.782 913.728,980.744 914.155,982.529 914.58,1008.23 915.006,992.817 915.433,988.595 915.859,998.691 916.285,1018.61 916.712,972.716 
  917.139,957.441 917.565,949.791 917.992,943.129 918.419,955.326 918.845,917.035 919.273,900.579 919.7,927.7 920.127,929.989 920.554,947.565 920.982,941.39 
  921.409,916.163 921.837,900.234 922.265,886.498 922.692,884.778 923.121,890.427 923.548,882.005 923.977,904.347 924.405,892.572 924.833,906.871 925.262,926.042 
  925.69,933.384 926.119,949.554 926.547,935.317 926.977,921.711 927.405,908.455 927.834,903.036 928.264,894.052 928.692,888.365 929.122,891.435 929.551,909.573 
  929.981,899.199 930.411,902.594 930.84,893.866 931.27,891.826 931.7,905.224 932.13,922.876 932.56,919.471 932.991,921.78 933.421,907.518 933.851,898.928 
  934.282,906.203 934.712,916.21 935.143,944.245 935.574,928.56 936.005,951.548 936.436,978.004 936.866,990.068 937.298,941.522 937.729,925.264 938.161,927.504 
  938.592,905.171 939.024,897.308 939.455,893.001 939.887,921.159 940.319,928.088 940.751,943.912 941.184,940.702 941.615,909.838 942.048,898.012 942.48,898.046 
  942.912,924.334 943.345,901.873 943.778,915.902 944.211,936.925 944.643,913.405 945.077,900.035 945.51,891.005 945.942,878.856 946.376,866.75 946.809,870.997 
  947.243,877.918 947.677,881.198 948.111,880.788 948.544,897.579 948.978,920.65 949.412,912.552 949.846,917.522 950.281,917.868 950.714,930.306 951.149,928.526 
  951.583,972.815 952.019,955.534 952.453,914.693 952.887,900.358 953.323,873.82 953.757,890.896 954.193,875.934 954.628,905.506 955.064,908.64 955.498,923.029 
  955.934,917.043 956.37,902.439 956.805,891.657 957.241,904.168 957.677,894.159 958.113,906.399 958.549,928.45 958.985,924.035 959.422,924.606 959.858,926.152 
  960.295,934.462 960.731,958.966 961.168,942.318 961.605,930.07 962.041,929.121 962.479,923.21 962.915,926.362 963.353,965.698 963.79,962.517 964.228,953.058 
  964.665,954.26 965.102,945.111 965.54,947.066 965.978,939.901 966.416,909.705 966.854,930.141 967.292,922.022 967.73,910.544 968.168,893.032 968.607,910.33 
  969.045,922.943 969.484,904.506 969.923,897.755 970.362,909.399 970.801,915.732 971.239,901.254 971.679,902.843 972.118,932.989 972.557,942.676 972.997,929.642 
  973.437,944.587 973.876,941.062 974.315,931.828 974.756,932.586 975.195,912.156 975.636,885.067 976.075,879.054 976.516,884.441 976.956,893.065 977.396,897.463 
  977.837,929.515 978.277,936.284 978.719,927.586 979.159,924.932 979.601,890.747 980.041,911.649 980.482,918.944 980.924,937.01 981.365,964.876 981.807,932.56 
  982.248,920.212 982.69,897.123 983.131,927.724 983.573,936.127 984.015,929.203 984.457,930.636 984.9,909.829 985.341,910.313 985.784,896.917 986.226,899.393 
  986.67,909.102 987.112,904.711 987.554,918.866 987.998,929.585 988.44,944.705 988.884,949.982 989.327,953.866 989.77,924.807 990.213,927.266 990.656,946.1 
  991.101,934.538 991.544,903.836 991.988,899.224 992.432,910.598 992.876,930.216 993.32,915.645 993.764,917.899 994.209,927.459 994.653,911.78 995.098,917.767 
  995.542,910.458 995.987,922.572 996.431,926.928 996.876,906.68 997.322,918.169 997.766,920.452 998.212,914.335 998.657,926.847 999.103,943.025 999.548,925.192 
  999.993,920.136 1000.44,927.069 1000.89,939.951 1001.33,930.899 1001.78,935.807 1002.22,912.842 1002.67,914.869 1003.12,916.034 1003.56,896.046 1004.01,886.992 
  1004.46,904.078 1004.9,901.661 1005.35,900.412 1005.8,905.448 1006.24,918.582 1006.69,926.587 1007.14,934.697 1007.59,912.771 1008.03,907.199 1008.48,915.505 
  1008.93,918.205 1009.38,922.554 1009.82,915.776 1010.27,902.217 1010.72,923.397 1011.17,922.283 1011.62,897.365 1012.06,906.726 1012.51,904.522 1012.96,923.882 
  1013.41,903.593 1013.86,898.088 1014.31,880.448 1014.76,892.766 1015.21,891.821 1015.66,879.904 1016.11,905.21 1016.55,906.127 1017,910.839 1017.45,908.234 
  1017.9,908.185 1018.35,896.299 1018.8,900.336 1019.25,904.538 1019.7,915.466 1020.15,931.177 1020.6,938.669 1021.06,915.163 1021.51,915.877 1021.96,884.809 
  1022.41,1237.59 1022.86,1214.96 1023.31,886.767 1023.76,904.811 1024.21,902.935 1024.66,901.245 1025.11,898.127 1025.57,909.706 1026.02,918.113 1026.47,903.629 
  1026.92,926.224 1027.37,939.054 1027.82,961.056 1028.28,975.392 1028.73,952.093 1029.18,936.395 1029.63,936.362 1030.09,931.274 1030.54,920.403 1030.99,906.084 
  1031.45,915.662 1031.9,919.83 1032.35,921.673 1032.8,944.383 1033.26,948.923 1033.71,918.772 1034.16,899.795 1034.62,906.519 1035.07,888.414 1035.52,896.82 
  1035.98,897.458 1036.43,898.717 1036.89,917.552 1037.34,929.444 1037.8,947.959 1038.25,936.648 1038.7,915.355 1039.16,916.253 1039.61,915.014 1040.07,923.202 
  1040.52,926.361 1040.98,933.502 1041.43,925.824 1041.89,911.361 1042.35,906.333 1042.8,903.073 1043.26,905.241 1043.71,909.288 1044.17,913.545 1044.62,898.438 
  1045.08,924.259 1045.54,931.018 1045.99,927.078 1046.45,928.541 1046.9,932.738 1047.36,943.691 1047.82,929.249 1048.27,919.451 1048.73,922.256 1049.19,927.743 
  1049.65,910.704 1050.1,913.688 1050.56,908.369 1051.02,936.281 1051.47,930.148 1051.93,922.189 1052.39,947.07 1052.85,960.939 1053.31,936.7 1053.76,936.917 
  1054.22,943.824 1054.68,925.438 1055.14,925.473 1055.6,924.058 1056.06,929.789 1056.51,936.325 1056.97,912.306 1057.43,928.331 1057.89,903.197 1058.35,909.119 
  1058.81,917.433 1059.27,912.396 1059.73,907.936 1060.19,932.28 1060.65,905.653 1061.11,937.093 1061.57,932.579 1062.03,922.177 1062.49,917.228 1062.95,930.931 
  1063.41,943.055 1063.87,920.327 1064.33,910.327 1064.79,895.439 1065.25,901.206 1065.71,910.406 1066.17,907.581 1066.63,926.165 1067.09,930.538 1067.55,935.216 
  1068.02,934.665 1068.48,923.298 1068.94,922.797 1069.4,948.024 1069.86,947.495 1070.32,940.218 1070.79,947.117 1071.25,950.97 1071.71,939.28 1072.17,914.336 
  1072.63,894.871 1073.1,913.432 1073.56,903.813 1074.02,895.688 1074.48,902.383 1074.95,901.788 1075.41,896.366 1075.87,904.464 1076.34,915.204 1076.8,911.191 
  1077.26,914.357 1077.73,911.502 1078.19,898.826 1078.65,906.729 1079.12,910.755 1079.58,893.449 1080.05,901.715 1080.51,910.623 1080.97,907.268 1081.44,907.352 
  1081.9,916.511 1082.37,906.596 1082.83,898.585 1083.3,895.965 1083.76,908.318 1084.23,903.584 1084.69,910.763 1085.16,903.227 1085.62,917.718 1086.09,931.038 
  1086.55,915.279 1087.02,905.279 1087.49,892.552 1087.95,907.218 1088.42,926.46 1088.88,933.889 1089.35,934.859 1089.82,923.875 1090.28,910.277 1090.75,917.887 
  1091.22,913.439 1091.68,900.716 1092.15,907.541 1092.62,913.729 1093.08,922.272 1093.55,907.014 1094.02,899.468 1094.49,899.94 1094.95,910.661 1095.42,929.118 
  1095.89,962.925 1096.36,956.628 1096.82,954.491 1097.29,955.975 1097.76,926.938 1098.23,937.545 1098.7,920.58 1099.17,927.081 1099.63,929.385 1100.1,899.533 
  1100.57,909.056 1101.04,918.343 1101.51,914.015 1101.98,892.284 1102.45,902.522 1102.92,898.202 1103.39,913.705 1103.86,910.853 1104.33,914.852 1104.8,915.193 
  1105.26,911.874 1105.74,916.637 1106.21,891.346 1106.68,914.267 1107.15,904.521 1107.62,922.315 1108.09,933.15 1108.56,909.456 1109.03,911.317 1109.5,908.899 
  1109.97,905.295 1110.44,901.85 1110.91,901.057 1111.38,902.757 1111.85,896.363 1112.33,898.414 1112.8,892.359 1113.27,929.609 1113.74,909.179 1114.21,917.663 
  1114.69,901.657 1115.16,896.274 1115.63,894.838 1116.1,894.891 1116.57,907.659 1117.05,901.271 1117.52,886.836 1117.99,908.744 1118.47,901.055 1118.94,923.245 
  1119.41,925.65 1119.89,905.602 1120.36,925.657 1120.83,932.115 1121.31,916.777 1121.78,922.518 1122.25,934.869 1122.73,947.103 1123.2,947.035 1123.67,910.915 
  1124.15,907.642 1124.62,941.553 1125.1,932.358 1125.57,923.271 1126.05,912.534 1126.52,899.923 1127,902.868 1127.47,907.89 1127.95,911.952 1128.42,895.004 
  1128.9,876.427 1129.37,889.432 1129.85,905.243 1130.32,916.994 1130.8,930.168 1131.28,918.489 1131.75,943.089 1132.23,963.754 1132.7,967.727 1133.18,971.403 
  1133.66,1014.12 1134.13,1052.46 1134.61,1040.21 1135.09,996.823 1135.56,988.071 1136.04,1017.03 1136.52,980.684 1136.99,949.77 1137.47,944.087 1137.95,927.804 
  1138.43,926.753 1138.9,928.018 1139.38,927.699 1139.86,922.181 1140.34,916.487 1140.82,912.324 1141.29,901.296 1141.77,904.162 1142.25,928.528 1142.73,939.948 
  1143.21,925.155 1143.69,925.561 1144.17,918.778 1144.64,914.328 1145.12,912.972 1145.6,921.794 1146.08,915.228 1146.56,905.129 1147.04,906.638 1147.52,914.747 
  1148,923.981 1148.48,907.26 1148.96,906.55 1149.44,906.498 1149.92,917 1150.4,921.832 1150.88,913.58 1151.36,913.581 1151.84,922.134 1152.32,927.169 
  1152.8,918.495 1153.28,907.336 1153.77,909.632 1154.25,915.721 1154.73,902.142 1155.21,921.015 1155.69,928.869 1156.17,929.285 1156.65,915.562 1157.14,922.244 
  1157.62,912.897 1158.1,916.688 1158.58,913.054 1159.06,909.409 1159.55,906.228 1160.03,906.867 1160.51,921.531 1160.99,910.676 1161.48,907.285 1161.96,899.672 
  1162.44,906.574 1162.93,893.928 1163.41,907.084 1163.89,898.978 1164.38,905.702 1164.86,922.22 1165.34,924.355 1165.83,914.477 1166.31,908.731 1166.8,922.239 
  1167.28,944.094 1167.76,929.483 1168.25,918.739 1168.73,912.084 1169.22,911.158 1169.7,918.696 1170.19,926.808 1170.67,906.146 1171.16,917.413 1171.64,925.977 
  1172.13,917.27 1172.61,912.784 1173.1,922.357 1173.58,919.733 1174.07,908.593 1174.56,921.175 1175.04,933.798 1175.53,932.517 1176.01,924.583 1176.5,918.729 
  1176.99,923.746 1177.47,916.215 1177.96,920.411 1178.45,932.458 1178.93,928.454 1179.42,929.183 1179.91,929.284 1180.39,922.829 1180.88,937.276 1181.37,917.434 
  1181.86,905.504 1182.34,913.414 1182.83,916.996 1183.32,904.747 1183.81,890.822 1184.29,895.881 1184.78,892.364 1185.27,894.725 1185.76,899.832 1186.25,901.301 
  1186.74,902.727 1187.23,899.045 1187.71,906.937 1188.2,914.022 1188.69,896.56 1189.18,898.675 1189.67,907.483 1190.16,884.918 1190.65,911.245 1191.14,900.567 
  1191.63,899.895 1192.12,904.91 1192.61,913.578 1193.1,914.19 1193.59,898.255 1194.08,892.802 1194.57,888.61 1195.06,917.619 1195.55,923.969 1196.04,919.081 
  1196.53,902.998 1197.03,887.361 1197.52,895.451 1198.01,895.33 1198.5,891.844 1198.99,891.794 1199.48,900.186 1199.97,903.61 1200.47,906.834 1200.96,909.904 
  1201.45,901.725 1201.94,912.601 1202.43,913.505 1202.93,920.237 1203.42,912.393 1203.91,915.128 1204.4,918.484 1204.9,913.18 1205.39,910.792 1205.88,901.899 
  1206.38,896.322 1206.87,894.709 1207.36,892.81 1207.86,903.159 1208.35,916.767 1208.84,920.674 1209.34,924.974 1209.83,907.121 1210.32,912.632 1210.82,899.921 
  1211.31,912.937 1211.81,908.269 1212.3,901.511 1212.8,898.016 1213.29,892.771 1213.79,896.027 1214.28,900.8 1214.78,917.421 1215.27,929.306 1215.77,922.746 
  1216.26,929.369 1216.76,912.403 1217.25,914.671 1217.75,928.389 1218.24,911.418 1218.74,922.578 1219.24,909.332 1219.73,913.406 1220.23,943.077 1220.73,960.259 
  1221.22,953.97 1221.72,937.039 1222.22,924.779 1222.71,926.293 1223.21,923.215 1223.71,908.201 1224.2,910.887 1224.7,918.63 1225.2,926.037 1225.7,915.574 
  1226.19,908.184 1226.69,921.631 1227.19,917.064 1227.69,912.25 1228.19,920.376 1228.68,933.084 1229.18,961.59 1229.68,976.181 1230.18,956.062 1230.68,938.057 
  1231.18,941.017 1231.68,950.321 1232.18,954.31 1232.68,954.495 1233.17,945.534 1233.67,928.367 1234.17,942.65 1234.67,916.747 1235.17,917.062 1235.67,928.791 
  1236.17,921.43 1236.67,923.922 1237.17,925.979 1237.67,920.888 1238.17,931.791 1238.68,941.704 1239.18,937.668 1239.68,959.468 1240.18,952.673 1240.68,936.33 
  1241.18,930.882 1241.68,914.178 1242.18,930.318 1242.68,936.283 1243.19,931.258 1243.69,923.903 1244.19,932.654 1244.69,923.196 1245.19,915.498 1245.7,916.898 
  1246.2,917.319 1246.7,928.234 1247.2,934.114 1247.71,946.244 1248.21,948.004 1248.71,952.094 1249.21,955.742 1249.72,944.415 1250.22,948.16 1250.72,936.977 
  1251.23,933.191 1251.73,942.93 1252.23,941.26 1252.74,950.471 1253.24,961.78 1253.75,964.805 1254.25,962.458 1254.76,945.162 1255.26,927.917 1255.76,930.6 
  1256.27,952.124 1256.77,961.39 1257.28,950.929 1257.78,960.726 1258.29,971.638 1258.79,962.484 1259.3,953.83 1259.8,952.271 1260.31,948.952 1260.82,945.282 
  1261.32,955.077 1261.83,963.327 1262.33,961.179 1262.84,958.697 1263.35,959.835 1263.85,960.633 1264.36,941.251 1264.86,934.181 1265.37,931.516 1265.88,941.994 
  1266.39,937.255 1266.89,942.613 1267.4,930.321 1267.91,944.662 1268.41,937.058 1268.92,939.387 1269.43,940.474 1269.94,932.811 1270.45,928.814 1270.95,939.663 
  1271.46,961.758 1271.97,960.9 1272.48,938.06 1272.99,944.773 1273.5,948.489 1274,925.019 1274.51,931.711 1275.02,926.468 1275.53,938.92 1276.04,935.385 
  1276.55,948.092 1277.06,927.618 1277.57,909.832 1278.08,905.096 1278.59,910.849 1279.1,926.863 1279.61,933.829 1280.12,926.377 1280.63,924.182 1281.14,930.031 
  1281.65,934.815 1282.16,940.042 1282.67,943.64 1283.18,950.336 1283.69,956.588 1284.2,964.989 1284.71,963.752 1285.23,957.91 1285.74,940.799 1286.25,934.691 
  1286.76,937.329 1287.27,932.589 1287.78,921.851 1288.3,920.039 1288.81,922.602 1289.32,922.102 1289.83,924.013 1290.35,929.437 1290.86,936.956 1291.37,934.708 
  1291.88,940.815 1292.4,926.36 1292.91,930.07 1293.42,944.866 1293.94,951.792 1294.45,951.28 1294.96,937.824 1295.48,932.004 1295.99,921.892 1296.5,925.336 
  1297.02,933.793 1297.53,935.547 1298.05,934.543 1298.56,946.159 1299.08,956.555 1299.59,949.096 1300.11,951.565 1300.62,934.196 1301.14,928.622 1301.65,932.22 
  1302.17,928.298 1302.68,925.82 1303.2,918.165 1303.71,922.831 1304.23,916.098 1304.74,920.736 1305.26,933.42 1305.78,932.589 1306.29,931.379 1306.81,935.85 
  1307.32,935.213 1307.84,930.739 1308.36,925.625 1308.87,921.126 1309.39,924.07 1309.91,925.869 1310.42,928.24 1310.94,947.484 1311.46,942.618 1311.98,925.4 
  1312.49,923.707 1313.01,940.274 1313.53,940.581 1314.05,930.005 1314.57,928.624 1315.08,916.808 1315.6,928.355 1316.12,938.758 1316.64,930.317 1317.16,928.487 
  1317.68,938.194 1318.2,938.014 1318.71,934.052 1319.23,942.883 1319.75,943.691 1320.27,938.273 1320.79,944.456 1321.31,929.137 1321.83,924.545 1322.35,914.929 
  1322.87,913.959 1323.39,935.144 1323.91,950.926 1324.43,942.032 1324.95,926.106 1325.47,908.099 1325.99,912.753 1326.51,932.392 1327.04,933.343 1327.56,929.407 
  1328.08,920.387 1328.6,914.002 1329.12,915.333 1329.64,906.739 1330.16,931.41 1330.68,948.271 1331.21,950.403 1331.73,937.413 1332.25,930.925 1332.77,924.53 
  1333.3,932.921 1333.82,928.428 1334.34,917.436 1334.86,942.426 1335.39,941.678 1335.91,935.061 1336.43,932.318 1336.96,911.411 1337.48,919.405 1338,931.232 
  1338.53,927.712 1339.05,922.16 1339.57,922.4 1340.1,926.223 1340.62,923.337 1341.15,931.473 1341.67,932.648 1342.2,941.825 1342.72,936.44 1343.24,939.84 
  1343.77,927.805 1344.29,923.472 1344.82,926.344 1345.34,937.414 1345.87,948.365 1346.39,978.331 1346.92,978.652 1347.45,977.426 1347.97,966.647 1348.5,954.6 
  1349.02,937.08 1349.55,932.172 1350.08,929.103 1350.6,920.682 1351.13,926.989 1351.65,935.604 1352.18,936.404 1352.71,933.09 1353.24,918.745 1353.76,937.347 
  1354.29,937.884 1354.82,944.487 1355.34,941.434 1355.87,921.138 1356.4,931.375 1356.93,929.438 1357.46,926.775 1357.98,928.564 1358.51,922.125 1359.04,935.629 
  1359.57,922.283 1360.1,932.318 1360.63,935.225 1361.15,918.688 1361.68,923.974 1362.21,930.031 1362.74,922.848 1363.27,920.695 1363.8,916.45 1364.33,876.895 
  1364.86,769.23 1365.39,716.948 1365.92,770.309 1366.45,890.968 1366.98,941.284 1367.51,950.354 1368.04,950.237 1368.57,942.769 1369.1,893.772 1369.63,533.238 
  1370.16,151.375 1370.69,86.2547 1371.22,313.363 1371.76,738.932 1372.29,943.805 1372.82,952.795 1373.35,951.731 1373.88,950.642 1374.41,949.215 1374.95,935.953 
  1375.48,914.948 1376.01,894.403 1376.54,825.726 1377.07,604.871 1377.61,434.03 1378.14,465.994 1378.67,692.67 1379.21,903.418 1379.74,924.572 1380.27,933.591 
  1380.81,953.971 1381.34,946.461 1381.87,944.932 1382.41,930.899 1382.94,932.671 1383.47,929.151 1384.01,918.318 1384.54,922.751 1385.08,931.769 1385.61,938.933 
  1386.15,939.817 1386.68,941.386 1387.21,940.785 1387.75,932.068 1388.28,928.677 1388.82,927.318 1389.36,926.197 1389.89,929.542 1390.43,921.628 1390.96,926.838 
  1391.5,934.627 1392.03,936.395 1392.57,927.704 1393.11,933.438 1393.64,934.804 1394.18,936.262 1394.71,945.201 1395.25,938.757 1395.79,955 1396.33,933.525 
  1396.86,932.974 1397.4,921.341 1397.94,929.543 1398.47,921.28 1399.01,935.515 1399.55,946.874 1400.09,935.641 1400.62,930.86 1401.16,936.286 1401.7,936.654 
  1402.24,935.492 1402.78,935.41 1403.32,933.443 1403.86,936.134 1404.39,938.406 1404.93,942.513 1405.47,956.156 1406.01,947.733 1406.55,949.347 1407.09,943.249 
  1407.63,949.135 1408.17,940.014 1408.71,923.989 1409.25,931.046 1409.79,932.103 1410.33,937.619 1410.87,942.016 1411.41,942.621 1411.95,942.601 1412.49,929.232 
  1413.03,932.912 1413.57,940.224 1414.11,923.692 1414.65,932.987 1415.19,932.001 1415.74,928.999 1416.28,934.48 1416.82,937.774 1417.36,942.132 1417.9,947.239 
  1418.44,943.819 1418.99,938.395 1419.53,941.094 1420.07,937.318 1420.61,931.367 1421.16,936.702 1421.7,939.306 1422.24,930.139 1422.79,933.456 1423.33,891.385 
  1423.87,792.022 1424.41,708.777 1424.96,753.948 1425.5,876.816 1426.04,928.669 1426.59,936.418 1427.13,940.926 1427.68,929.874 1428.22,927.404 1428.77,849.857 
  1429.31,758.485 1429.85,772.114 1430.4,863.986 1430.94,943.152 1431.49,954.227 1432.03,954.044 1432.58,955.55 1433.13,952.583 1433.67,946.32 1434.22,951.163 
  1434.76,954.644 1435.31,953.385 1435.85,956.68 1436.4,962.314 1436.95,962.779 1437.49,951.116 1438.04,954.738 1438.59,943.603 1439.13,941.999 1439.68,939.973 
  1440.23,937.287 1440.77,938.01 1441.32,945.648 1441.87,949.072 1442.42,957.991 1442.96,954.876 1443.51,944.407 1444.06,942.756 1444.61,945.598 1445.15,939.366 
  1445.7,928.192 1446.25,932.921 1446.8,939.451 1447.35,943.402 1447.9,951.998 1448.45,963.335 1448.99,959.602 1449.54,948.619 1450.09,952.946 1450.64,949.463 
  1451.19,950.792 1451.74,964.679 1452.29,966.196 1452.84,955.744 1453.39,952.032 1453.94,944.277 1454.49,940.318 1455.04,939.567 1455.59,945.331 1456.14,958.489 
  1456.69,953.081 1457.25,953.792 1457.8,948.432 1458.35,948.5 1458.9,947.97 1459.45,949.343 1460,949.623 1460.55,940.27 1461.11,943.978 1461.66,950.059 
  1462.21,942.558 1462.76,927.881 1463.31,937.639 1463.87,945.887 1464.42,952.753 1464.97,949.523 1465.52,939.387 1466.08,934.613 1466.63,946.283 1467.18,947.284 
  1467.74,954.497 1468.29,961.74 1468.84,963.217 1469.4,953.012 1469.95,944.804 1470.51,943.91 1471.06,943.899 1471.61,943.84 1472.17,959.091 1472.72,963.776 
  1473.28,954.177 1473.83,960.316 1474.39,946.563 1474.94,956.229 1475.5,961.451 1476.05,954.977 1476.61,950.759 1477.16,941.717 1477.72,934.449 1478.27,928.85 
  1478.83,940.951 1479.39,946.216 1479.94,945.429 1480.5,943.561 1481.05,941.744 1481.61,941.2 1482.17,942.85 1482.73,949.04 1483.28,957.534 1483.84,952.732 
  1484.4,938.377 1484.95,933.538 1485.51,936.28 1486.07,940.745 1486.63,921.99 1487.18,938.972 1487.74,941.29 1488.3,933.79 1488.86,943.563 1489.42,937.971 
  1489.97,939.948 1490.53,936.483 1491.09,931.993 1491.65,923.795 1492.21,933.461 1492.77,925.216 1493.33,931.541 1493.89,943.864 1494.45,941.359 1495.01,950.196 
  1495.57,950.122 1496.13,948.421 1496.69,946.446 1497.25,959.33 1497.81,964.33 1498.37,959.58 1498.93,950.766 1499.49,954.756 1500.05,951.598 1500.61,957.628 
  1501.17,966.755 1501.73,959.873 1502.29,950.628 1502.85,937.197 1503.42,936.151 1503.98,943.548 1504.54,949.037 1505.1,947.242 1505.66,943.093 1506.23,942.216 
  1506.79,947.364 1507.35,959.18 1507.91,959.842 1508.48,950.004 1509.04,932.011 1509.6,940.192 1510.17,937.167 1510.73,923.972 1511.29,938.206 1511.85,947.317 
  1512.42,938.23 1512.98,923.997 1513.55,929.134 1514.11,938.245 1514.67,941.61 1515.24,937.786 1515.8,963.038 1516.37,973.491 1516.93,971.133 1517.5,965.788 
  1518.06,940.028 1518.63,945.267 1519.19,940.243 1519.76,940.462 1520.32,941.347 1520.89,944.999 1521.45,949.043 1522.02,949.778 1522.59,931.064 1523.15,943.288 
  1523.72,943.809 1524.28,950.055 1524.85,955.891 1525.42,963.679 1525.98,961.883 1526.55,963.429 1527.12,935.421 1527.69,943.953 1528.25,946.532 1528.82,932.263 
  1529.39,966.297 1529.96,977.516 1530.52,949.881 1531.09,938.627 1531.66,960.124 1532.23,966.946 1532.8,956.718 1533.36,948.134 1533.93,943.402 1534.5,943.407 
  1535.07,955.956 1535.64,949.488 1536.21,946.412 1536.78,935.179 1537.35,942.507 1537.92,949.402 1538.49,931.099 1539.06,922.852 1539.63,933.999 1540.2,928.445 
  1540.77,937.007 1541.34,926.727 1541.91,919.493 1542.48,949.04 1543.05,962.986 1543.62,966.979 1544.19,960.626 1544.76,968.522 1545.33,977.294 1545.9,973.722 
  1546.47,967.217 1547.05,966.912 1547.62,971.601 1548.19,970.496 1548.76,961.307 1549.33,957.07 1549.91,957.497 1550.48,961.139 1551.05,958.439 1551.62,946.497 
  1552.2,949.509 1552.77,959.944 1553.34,968.59 1553.92,979.561 1554.49,981.624 1555.06,981.415 1555.64,989.143 1556.21,988.272 1556.78,988.719 1557.36,982.289 
  1557.93,968.827 1558.5,970.411 1559.08,986.254 1559.65,980.643 1560.23,974.415 1560.8,976.012 1561.38,975.582 1561.95,975.595 1562.53,986.271 1563.1,993.554 
  1563.68,982.34 1564.26,983.396 1564.83,983.245 1565.41,981.303 1565.98,986.988 1566.56,983.227 1567.13,985.903 1567.71,990.853 1568.29,989.328 1568.86,997.022 
  1569.44,999.52 1570.02,1003.06 1570.59,1005.23 1571.17,985.597 1571.75,971.972 1572.33,976.541 1572.9,982.033 1573.48,984.828 1574.06,981.63 1574.64,994.734 
  1575.22,988.263 1575.79,990.988 1576.37,1003.2 1576.95,986.976 1577.53,973.967 1578.11,962.92 1578.69,974.273 1579.27,983.35 1579.84,999.754 1580.42,983.231 
  1581,974.736 1581.58,1001.64 1582.16,1005.8 1582.74,999.985 1583.32,997.271 1583.9,995.027 1584.48,982.464 1585.06,982.359 1585.64,979.028 1586.22,978.563 
  1586.8,977.286 1587.39,996.638 1587.97,991.186 1588.55,983.873 1589.13,986.247 1589.71,1009.42 1590.29,1018.7 1590.87,1000.71 1591.46,987.153 1592.04,983.114 
  1592.62,998.028 1593.2,970.611 1593.78,966.369 1594.37,975.16 1594.95,991.951 1595.53,980.418 1596.11,971.325 1596.7,986.541 1597.28,991.816 1597.86,981.56 
  1598.45,959.938 1599.03,958.84 1599.62,980.795 1600.2,986.262 1600.78,978.408 1601.37,986.045 1601.95,974.532 1602.54,977.027 1603.12,972.287 1603.7,964.148 
  1604.29,984.243 1604.87,953.238 1605.46,942.97 1606.05,954.654 1606.63,970.997 1607.21,962.335 1607.8,956.546 1608.39,992.962 1608.97,967.456 1609.56,968.147 
  1610.15,979.538 1610.73,991.061 1611.32,967.124 1611.9,961.892 1612.49,977.825 1613.08,986.603 1613.66,999.744 1614.25,986.363 1614.84,968.009 1615.42,975.107 
  1616.01,971.429 1616.6,971.255 1617.19,964.949 1617.78,960.486 1618.36,956.922 1618.95,979.118 1619.54,1017.32 1620.13,981.03 1620.72,966.309 1621.31,955.428 
  1621.89,961.071 1622.48,989.866 1623.07,1003.6 1623.66,1012.18 1624.25,998.057 1624.84,992.422 1625.43,984.823 1626.02,987.692 1626.61,992.684 1627.2,984.711 
  1627.79,969.18 1628.38,960.675 1628.97,967.925 1629.56,971.32 1630.15,980.447 1630.74,986.436 1631.33,981.76 1631.93,974.927 1632.52,953.442 1633.11,996.192 
  1633.7,999.719 1634.29,966.522 1634.88,961.867 1635.48,956.441 1636.07,965.723 1636.66,957.494 1637.25,968.782 1637.84,966.785 1638.44,972.491 1639.03,968.499 
  1639.62,958.516 1640.22,954.251 1640.81,931.085 1641.4,946.582 1642,983.154 1642.59,946.391 1643.18,942.388 1643.78,941.857 1644.37,943.065 1644.97,958.861 
  1645.56,957.456 1646.15,948.149 1646.75,951.373 1647.34,949.29 1647.94,976.284 1648.53,980.848 1649.13,986.69 1649.72,978.419 1650.32,961.172 1650.91,943.514 
  1651.51,979.328 1652.11,996.811 1652.7,944.058 1653.3,946.743 1653.89,944.524 1654.49,948.642 1655.09,954.335 1655.68,953.535 1656.28,952.717 1656.88,950.509 
  1657.47,941.172 1658.07,934.648 1658.67,952.645 1659.27,968.291 1659.86,976.31 1660.46,977.451 1661.06,975.55 1661.66,973.594 1662.25,961.482 1662.85,948.415 
  1663.45,962.615 1664.05,954.005 1664.65,955.865 1665.25,966.063 1665.85,943.204 1666.44,946.943 1667.04,950.444 1667.64,958.325 1668.24,968.21 1668.84,957.92 
  1669.44,962.531 1670.04,970.422 1670.64,966.724 1671.24,959.286 1671.84,954.858 1672.44,955.77 1673.04,961.985 1673.65,960.146 1674.25,943.342 1674.85,936.112 
  1675.45,953.486 1676.05,965.807 1676.65,955.6 1677.25,940.35 1677.85,945.284 1678.46,957.54 1679.06,961.949 1679.66,952.313 1680.26,960.839 1680.86,960.877 
  1681.47,962.323 1682.07,951.591 1682.67,954.917 1683.28,936.094 1683.88,963.465 1684.48,947.793 1685.09,950.542 1685.69,955.816 1686.29,975.456 1686.9,958.062 
  1687.5,946.768 1688.1,937.701 1688.71,953.487 1689.31,951.657 1689.92,959.234 1690.52,967.325 1691.13,941.722 1691.73,961.501 1692.34,952.417 1692.94,953.608 
  1693.55,958.852 1694.15,946.025 1694.76,947.554 1695.36,942.969 1695.97,954.377 1696.58,958.902 1697.18,966.123 1697.79,979.087 1698.39,970.05 1699,953.365 
  1699.61,941.158 1700.22,940.056 1700.82,936.475 1701.43,930.663 1702.04,951.194 1702.64,955.321 1703.25,943.971 1703.86,957.807 1704.47,955.951 1705.07,935.812 
  1705.68,926.761 1706.29,958.163 1706.9,935.778 1707.51,943.563 1708.12,948.708 1708.73,959.242 1709.33,945.257 1709.94,946.131 1710.55,950.308 1711.16,947.552 
  1711.77,941.298 1712.38,932.589 1712.99,953.327 1713.6,948.553 1714.21,942.687 1714.82,942.606 1715.43,942.676 1716.04,946.086 1716.65,943.516 1717.26,948.084 
  1717.87,939.321 1718.48,943.413 1719.1,951.209 1719.71,951.105 1720.32,940.87 1720.93,942.627 1721.54,932.434 1722.15,933.442 1722.77,950.833 1723.38,961.54 
  1723.99,951.326 1724.6,942.619 1725.22,947.57 1725.83,956.665 1726.44,957.144 1727.06,932.742 1727.67,942.376 1728.28,943.294 1728.9,956.428 1729.51,958.429 
  1730.12,982.626 1730.74,1001.01 1731.35,994.925 1731.96,990.262 1732.58,990.271 1733.19,977.178 1733.81,964.76 1734.42,952.855 1735.04,946.449 1735.65,960.34 
  1736.27,960.71 1736.88,960.719 1737.5,942.674 1738.11,955.226 1738.73,964.886 1739.35,975.224 1739.96,973.333 1740.58,968.47 1741.19,984.211 1741.81,977.163 
  1742.43,951.486 1743.04,967.147 1743.66,962.983 1744.28,959.474 1744.89,973.141 1745.51,967.051 1746.13,987.124 1746.75,965.173 1747.36,975.012 1747.98,987.584 
  1748.6,978.88 1749.22,981.063 1749.84,967.561 1750.46,957.22 1751.07,985.239 1751.69,977.901 1752.31,985.33 1752.93,986.668 1753.55,1002.58 1754.17,979.89 
  1754.79,1001.41 1755.41,1002.33 1756.03,983.753 1756.65,998.565 1757.27,1012.24 1757.89,1006.88 1758.51,995.335 1759.13,998.985 1759.75,997.607 1760.37,982.165 
  1760.99,982.225 1761.61,987.808 1762.23,980.593 1762.85,987.436 1763.47,988.741 1764.1,991.468 1764.72,978.056 1765.34,983.748 1765.96,994.76 1766.58,987.711 
  1767.21,978.323 1767.83,981.187 1768.45,984.069 1769.07,995.096 1769.7,1002.31 1770.32,1001.13 1770.94,972.408 1771.57,962.629 1772.19,997.944 1772.81,970.772 
  1773.44,999.872 1774.06,1032.44 1774.69,1023.04 1775.31,1014.58 1775.93,997.792 1776.56,997.762 1777.18,999.573 1777.81,998.277 1778.43,994.907 1779.06,995.467 
  1779.68,992.81 1780.31,988.747 1780.93,973.033 1781.56,1003.14 1782.18,992.97 1782.81,972.747 1783.44,967.176 1784.06,973.837 1784.69,963.421 1785.31,975.419 
  1785.94,1041.67 1786.57,1043.18 1787.19,1006.9 1787.82,992.22 1788.45,990.484 1789.08,997.297 1789.7,980.988 1790.33,985.191 1790.96,987.459 1791.59,983.668 
  1792.22,988.506 1792.84,975.998 1793.47,989.292 1794.1,984.271 1794.73,989.393 1795.36,987.856 1795.99,1007.74 1796.62,999.16 1797.24,992.779 1797.87,991.027 
  1798.5,999.23 1799.13,992.871 1799.76,974.701 1800.39,974.352 1801.02,1005.09 1801.65,997.091 1802.28,988.737 1802.91,982.516 1803.54,976.497 1804.18,988.079 
  1804.81,981.175 1805.44,985.653 1806.07,982.554 1806.7,974.042 1807.33,979.219 1807.96,990.995 1808.6,994.861 1809.23,974.129 1809.86,936.808 1810.49,1001.06 
  1811.12,989.223 1811.76,982.65 1812.39,977.386 1813.02,975.93 1813.65,973.311 1814.29,980.455 1814.92,974.227 1815.55,980.627 1816.19,994.384 1816.82,983.458 
  1817.46,999.946 1818.09,1007.15 1818.72,989.433 1819.36,982.177 1819.99,980.492 1820.63,961.37 1821.26,961.299 1821.9,1009.35 1822.53,1011.98 1823.17,979.593 
  1823.8,979.204 1824.44,991.706 1825.07,985.373 1825.71,976.826 1826.34,977.516 1826.98,974.521 1827.62,981.917 1828.25,992.121 1828.89,999.727 1829.53,988.548 
  1830.16,997.346 1830.8,996.603 1831.44,1007.36 1832.07,994.241 1832.71,995.139 1833.35,990.372 1833.99,996.872 1834.63,1009.58 1835.26,1004.33 1835.9,995.529 
  1836.54,984.835 1837.18,986.851 1837.82,1002.31 1838.45,1017.05 1839.09,1010.71 1839.73,995.276 1840.37,999.987 1841.01,1001.61 1841.65,974.229 1842.29,965.624 
  1842.93,1029.28 1843.57,1044.21 1844.21,1002.25 1844.85,1015.38 1845.49,1021.67 1846.13,1031.2 1846.77,1014.06 1847.41,1022.01 1848.05,995.565 1848.69,984.711 
  1849.33,1006.04 1849.98,1020.7 1850.62,1011.19 1851.26,1011.26 1851.9,1016.44 1852.54,1007.31 1853.18,1008.55 1853.83,1017.5 1854.47,1007.38 1855.11,1011.94 
  1855.75,1031.87 1856.4,1032.35 1857.04,1017.36 1857.68,1012.8 1858.33,1019.62 1858.97,1017.84 1859.61,993.794 1860.26,999.478 1860.9,1036.7 1861.55,1009.5 
  1862.19,1000.88 1862.83,1005.85 1863.48,998.006 1864.12,981.292 1864.77,986.59 1865.41,989.735 1866.06,1003.69 1866.7,1003.93 1867.35,999.821 1867.99,1009.07 
  1868.64,993.541 1869.28,987.322 1869.93,932.595 1870.58,995.215 1871.22,1034.13 1871.87,999.907 1872.52,1003.62 1873.16,1019.32 1873.81,1009.38 1874.46,1016.47 
  1875.1,1013.34 1875.75,1007.07 1876.4,1006.25 1877.05,988.795 1877.69,992.447 1878.34,1009.69 1878.99,1001.17 1879.64,996.841 1880.29,980.123 1880.93,994.143 
  1881.58,952.366 1882.23,995.184 1882.88,1011.25 1883.53,989.046 1884.18,992.604 1884.83,1024.92 1885.48,1012.46 1886.13,978.848 1886.78,996.225 1887.43,992.681 
  1888.08,980.381 1888.73,982.991 1889.38,985.498 1890.03,964.39 1890.68,978.606 1891.33,1005.17 1891.98,1005.76 1892.63,989.945 1893.28,971.689 1893.93,976.188 
  1894.59,990.283 1895.24,995.233 1895.89,988.614 1896.54,967.953 1897.19,980.35 1897.85,991.991 1898.5,977.319 1899.15,981.212 1899.8,992.686 1900.46,1011.48 
  1901.11,989.951 1901.76,1000.98 1902.42,989.046 1903.07,985.734 1903.72,984.499 1904.38,986.563 1905.03,1015.06 1905.69,998.521 1906.34,992.91 1907,1006.24 
  1907.65,1007.48 1908.31,1006 1908.96,1011.18 1909.61,979.806 1910.27,1009.7 1910.92,1010.6 1911.58,996.818 1912.24,1008.97 1912.89,1008.96 1913.55,1006.65 
  1914.2,992.753 1914.86,986.095 1915.52,996.958 1916.17,1015.71 1916.83,1032.03 1917.49,1000.39 1918.14,1005.63 1918.8,998.61 1919.46,999.411 1920.12,1012.23 
  1920.77,1004.87 1921.43,992.689 1922.09,1010.54 1922.75,1008.97 1923.41,998.845 1924.06,1005.13 1924.72,1009.7 1925.38,1026.5 1926.04,1006.43 1926.7,1008.99 
  1927.36,998.869 1928.02,991.368 1928.68,993.696 1929.34,1007.56 1930,996.776 1930.66,962.577 1931.32,979.088 1931.98,1011.42 1932.64,991.002 1933.3,972.391 
  1933.96,972.934 1934.62,1004.03 1935.28,976.645 1935.94,988.61 1936.6,999.363 1937.26,985.39 1937.93,992.488 1938.59,989.02 1939.25,996.164 1939.91,1002.14 
  1940.57,1009.3 1941.24,989.829 1941.9,982.643 1942.56,940.993 1943.22,1003.39 1943.89,1009.5 1944.55,1003.93 1945.21,1001.15 1945.88,982.482 1946.54,1026.78 
  1947.2,1017.94 1947.87,1009.39 1948.53,994.512 1949.2,993.329 1949.86,1018.4 1950.52,1029.72 1951.19,1020.55 1951.85,1028.27 1952.52,1016.82 1953.18,999.278 
  1953.85,1011.77 1954.51,1013.02 1955.18,995.921 1955.85,975.951 1956.51,980.413 1957.18,990.145 1957.84,1005.06 1958.51,988.604 1959.18,985.552 1959.84,1011.43 
  1960.51,994.297 1961.18,998.657 1961.84,995.066 1962.51,999.049 1963.18,999.517 1963.85,998.104 1964.51,998.84 1965.18,1010.54 1965.85,1016.21 1966.52,977.251 
  1967.19,991.059 1967.85,994.941 1968.52,986.156 1969.19,1000.64 1969.86,974.207 1970.53,993.799 1971.2,987.059 1971.87,1013.35 1972.54,993.879 1973.21,997.249 
  1973.88,992.968 1974.55,1010.56 1975.22,1038.92 1975.89,1016.57 1976.56,999.807 1977.23,980.358 1977.9,1026.41 1978.57,1029.3 1979.24,1017 1979.91,1019.39 
  1980.59,1014.49 1981.26,1003.6 1981.93,1012.04 1982.6,1034.22 1983.27,1021.61 1983.94,1036.29 1984.62,1046.77 1985.29,1042.17 1985.96,1021.01 1986.63,1011.46 
  1987.31,1011.41 1987.98,1021.78 1988.65,1021.32 1989.33,1015.38 1990,1030.7 1990.67,1018.24 1991.35,1023.08 1992.02,1029 1992.7,1014.25 1993.37,920.123 
  1994.05,1065.4 1994.72,1139.75 1995.39,1017.06 1996.07,988.384 1996.75,1014.66 1997.42,1080.09 1998.1,1039.73 1998.77,1020.7 1999.45,1012.05 2000.12,1037.3 
  2000.8,1000.87 2001.48,1042.26 2002.15,1032.19 2002.83,1022.25 2003.5,1030.85 2004.18,1029.5 2004.86,1015.54 2005.53,1021.02 2006.21,1008.42 2006.89,981.081 
  2007.57,1037.46 2008.25,1045.99 2008.92,1019.21 2009.6,1027.26 2010.28,1029.85 2010.96,1029.91 2011.64,1041.36 2012.32,970.689 2012.99,1020.7 2013.67,1058.92 
  2014.35,1026.57 2015.03,1018.33 2015.71,1023.99 2016.39,1021.2 2017.07,1020.98 2017.75,988.506 2018.43,997.373 2019.11,1030.52 2019.79,1040.54 2020.47,1013.45 
  2021.15,1003.44 2021.83,999.739 2022.51,1004.74 2023.2,941.885 2023.88,1004.68 2024.56,1081.6 2025.24,1037.19 2025.92,1022.94 2026.6,1016.18 2027.29,1030.21 
  2027.97,1052.88 2028.65,1068.81 2029.34,1056.81 2030.02,1037.04 2030.7,1016.85 2031.38,1027.3 2032.07,1034.76 2032.75,1042.93 2033.43,1020.6 2034.12,1024.39 
  2034.8,1025.63 2035.48,991.926 2036.17,1011.85 2036.85,1061.02 2037.54,1046.77 2038.22,1028.94 2038.91,1047.54 2039.59,1050.98 2040.28,1050.85 2040.96,1042.68 
  2041.65,1036.92 2042.33,1015.94 2043.02,1030.14 2043.71,1023.29 2044.39,1022.97 2045.08,1024.87 2045.76,1007.89 2046.45,1032.57 2047.14,1027.23 2047.82,1018.94 
  2048.51,1035.93 2049.2,1047.75 2049.89,1130.81 2050.57,1182.14 2051.26,1125.69 2051.95,1066.81 2052.64,1058.32 2053.33,1038.29 2054.01,1033.92 2054.7,1024.16 
  2055.39,1056.16 2056.08,1067.96 2056.77,1077.28 2057.46,1045.87 2058.15,1044.67 2058.84,1036.07 2059.53,1024.99 2060.22,1035.82 2060.9,1046.82 2061.6,1026.69 
  2062.29,1057.38 2062.98,1045.41 2063.67,1077.09 2064.36,1117.79 2065.05,1172.21 2065.74,1287.91 2066.43,1262.6 2067.12,1161.49 2067.81,1112.99 2068.5,1071.05 
  2069.2,1039.36 2069.89,1042.35 2070.58,1036.69 2071.27,1039.21 2071.97,1046.03 2072.66,1031.3 2073.35,1040.64 2074.04,1028.83 2074.74,1035.59 2075.43,1031.3 
  2076.12,1036.32 2076.82,1045.63 2077.51,1041.84 2078.2,1013.15 2078.9,1017.41 2079.59,1020.12 2080.29,1059.69 2080.98,1024.5 2081.68,1032.41 2082.37,1028.12 
  2083.07,1041.46 2083.76,1047.85 2084.46,1039.17 2085.15,1053.8 2085.85,1038.71 2086.54,1030.43 2087.24,1037.43 2087.94,1030.03 2088.63,1015.71 2089.33,1034.79 
  2090.02,1028.27 2090.72,1035.69 2091.42,1021.01 2092.12,1004.17 2092.81,1009.21 2093.51,1042.02 2094.21,1030.91 2094.91,1035.43 2095.6,1009.87 2096.3,1023.38 
  2097,1032.28 2097.7,1023.87 2098.4,1031.34 2099.1,1022.64 2099.79,1017.26 2100.49,1004.95 2101.19,1026.29 2101.89,1023.42 2102.59,1029.19 2103.29,1042.79 
  2103.99,1035.45 2104.69,1038.75 2105.39,1045.69 2106.09,1038.23 2106.79,1132.37 2107.49,1199.99 2108.19,1232.94 2108.89,1198.09 2109.59,1091.27 2110.3,1085.1 
  2111,1051.78 2111.7,1040.77 2112.4,1076.74 2113.1,1046.57 2113.81,1022.02 2114.51,1049.62 2115.21,1042.64 2115.91,1021.61 2116.62,1047.92 2117.32,1071.6 
  2118.02,1048.84 2118.72,1020.95 2119.43,1022.92 2120.13,1029.1 2120.83,1038.16 2121.54,1026.58 2122.24,1025.13 2122.95,1024.97 2123.65,1009.7 2124.35,1037.92 
  2125.06,1026.27 2125.76,1031.74 2126.47,1020.5 2127.17,1019.52 2127.88,1022.78 2128.59,1025.49 2129.29,1012.21 2130,1015.86 2130.7,1012.63 2131.41,1029.45 
  2132.12,1020.48 2132.82,1024.38 2133.53,1020.24 2134.24,1023.95 2134.94,1022.39 2135.65,1022.69 2136.36,1028.92 2137.06,1032.55 2137.77,1032.02 2138.48,1017.36 
  2139.19,1005.12 2139.9,986.957 2140.6,1046.9 2141.31,994.489 2142.02,968.096 2142.73,1041.66 2143.44,1076.87 2144.15,1016.81 2144.86,990.48 2145.57,990.723 
  2146.28,1045 2146.99,1042.61 2147.7,1022.48 2148.41,1012.1 2149.12,993.547 2149.83,999.928 2150.54,989.117 2151.25,1013 2151.96,1015.31 2152.67,1018.02 
  2153.38,1006.76 2154.09,1017.88 2154.8,1024.84 2155.51,994.096 2156.23,982.029 2156.94,1000.46 2157.65,1023.18 2158.36,1062.61 2159.08,1042.08 2159.79,1028.43 
  2160.5,1000.52 2161.21,988.083 2161.93,939.396 2162.64,803.014 2163.35,1081.57 2164.07,1181.47 2164.78,1050.75 2165.49,990.781 2166.21,976.715 2166.92,991.852 
  2167.64,1004.61 2168.35,994.519 2169.07,997.179 2169.78,1011.91 2170.5,988.806 2171.21,1002.49 2171.93,1011.69 2172.64,984.048 2173.36,991.364 2174.08,1000.38 
  2174.79,970.632 2175.51,993.81 2176.23,994.595 2176.94,963.33 2177.66,1047.73 2178.38,1063.51 2179.09,1049.12 2179.81,1051.7 2180.53,1046.1 2181.24,1027.72 
  2181.96,1029.27 2182.68,1014.43 2183.4,879.251 2184.12,1136.26 2184.84,1159.36 2185.55,1035.51 2186.27,1019.72 2186.99,995.936 2187.71,1013.57 2188.43,1007.27 
  2189.15,980.308 2189.87,971.134 2190.59,1026.33 2191.31,1017.81 2192.03,991.016 2192.75,1001.11 2193.47,997.415 2194.19,1006.39 2194.91,881.403 2195.63,962.415 
  2196.35,1192.7 2197.07,1062.41 2197.8,1014.18 2198.52,1027.7 2199.24,1032.14 2199.96,1022.74 2200.68,1032.64 2201.4,1034.15 2202.13,1003.29 2202.85,1010.32 
  2203.57,965.939 2204.3,1012.96 2205.02,1089.55 2205.74,1028.51 2206.46,1020.96 2207.19,1029.3 2207.91,1023.9 2208.64,910.978 2209.36,1011.5 2210.08,1151.08 
  2210.81,1039.68 2211.53,1028.09 2212.26,1011.44 2212.98,1043.24 2213.71,1045.17 2214.43,1033.59 2215.16,1056.16 2215.89,1037.96 2216.61,1021.58 2217.34,999.957 
  2218.06,1001.88 2218.79,1053.05 2219.52,998.799 2220.24,1057.82 2220.97,991.459 2221.69,1001.22 2222.42,1004.86 2223.15,1042.57 2223.88,959.02 2224.6,1028.22 
  2225.33,1051.39 2226.06,1034.64 2226.79,1043.09 2227.52,1041.47 2228.24,1033.53 2228.97,1042.51 2229.7,1054.77 2230.43,1049.96 2231.16,1071.12 2231.89,1049.75 
  2232.62,1043.62 2233.35,990.958 2234.08,1049.74 2234.81,1044.54 2235.54,1026.91 2236.27,1016.35 2237,991.022 2237.73,1012.83 2238.46,1037.07 2239.19,1015.04 
  2239.92,999.627 2240.65,972.042 2241.39,1006 2242.12,1016.22 2242.85,995.285 2243.58,997.417 2244.31,992.506 2245.05,996.595 2245.78,1021.4 2246.51,1010.08 
  2247.24,1003.91 2247.98,986.406 2248.71,959.217 2249.44,955.475 2250.18,935.579 2250.91,948.734 2251.64,961.749 2252.38,978.462 2253.11,971.324 2253.85,1009.4 
  2254.58,1017.72 2255.31,1026.57 2256.05,1012.78 2256.79,1035.38 2257.52,1056.41 2258.26,1065.06 2258.99,1018.29 2259.73,990.459 2260.46,1012.42 2261.2,1052.95 
  2261.93,1004.78 2262.67,1009.05 2263.41,1005.8 2264.14,1015.65 2264.88,1039.11 2265.62,1038.47 2266.35,986.945 2267.09,1009.49 2267.83,1034.57 2268.57,1073.22 
  2269.31,1034.98 2270.04,999.936 2270.78,1017.02 2271.52,1012.21 2272.26,996.142 2273,992.768 2273.74,1017.42 2274.48,1015.98 2275.21,1023.42 2275.95,1047.52 
  2276.69,1088.37 2277.43,1057 2278.17,1041.64 2278.91,973.121 2279.65,981.861 2280.39,1016.48 2281.13,1020.01 2281.87,1013.47 2282.62,1038.86 2283.36,1019.21 
  2284.1,1044.62 2284.84,1088.96 2285.58,1069.83 2286.32,1050.18 2287.06,1063.62 2287.81,1055.57 2288.55,1041.35 2289.29,1024.79 2290.03,1016.87 2290.78,1021.6 
  2291.52,1006.68 2292.26,1023.26 2293.01,1053.04 2293.75,1002.57 2294.5,990.315 2295.24,984.239 2295.98,1030.38 
  "/>
</svg>
